# xmcd
#
# Track frame offsets: 
#        150
#        17839
#        35834
#        48743
#        63836
#        77756
#        101389
#        120794
#        132856
#        152238
#        172006
#        191844
#        205528
#        218566
#        237948
#        257624
#        276206
#        290711
#        308518
#
# Disc length: 4312 seconds
#
# Revision: 0
# Processed by: cddbd v1.5.2PL0 Copyright (c) Steve Scherf et al.
# Submitted via: ExactAudioCopy v1.3
#
DISCID=0a10d613
DTITLE=Lacy J. Dalton, Mary McCaslin and Ginny Mitchell -  Girls From Sa
DTITLE=nta Cruz
DYEAR=2002
DGENRE=Country
TTITLE0=Let 'Em Run
TTITLE1=Black Coffee
TTITLE2=16th Ave
TTITLE3=Blue Roan Mare
TTITLE4=Cowboy's Sweetheart
TTITLE5=Slip Away
TTITLE6=Little Boy Blue
TTITLE7=Acres Of Houses
TTITLE8=(Ghost) Riders In The Sky
TTITLE9=Sanctuary
TTITLE10=And The Spirit Sings
TTITLE11=Girls From Santa Cruz
TTITLE12=Straight To You
TTITLE13=Listen To The Wind
TTITLE14=The One Thing
TTITLE15=I Miss You Boy
TTITLE16=A Wild Rose
TTITLE17=Prairie In The Sky
TTITLE18=Wild Pony Lullabye
EXTD=
EXTT0=
EXTT1=
EXTT2=
EXTT3=
EXTT4=
EXTT5=
EXTT6=
EXTT7=
EXTT8=
EXTT9=
EXTT10=
EXTT11=
EXTT12=
EXTT13=
EXTT14=
EXTT15=
EXTT16=
EXTT17=
EXTT18=
PLAYORDER=
